<?xml version="1.0" encoding="iso-8859-1"?>
<!-- Generator: Adobe Illustrator 19.0.0, SVG Export Plug-In . SVG Version: 6.00 Build 0)  -->
<svg version="1.1" id="Capa_1" xmlns="http://www.w3.org/2000/svg" xmlns:xlink="http://www.w3.org/1999/xlink" x="0px" y="0px"
	 viewBox="0 0 480 480" style="enable-background:new 0 0 480 480;" xml:space="preserve">
<g>
	<g>
		<path d="M100,296c-13.255,0-24-10.745-24-24c0-4.418-3.582-8-8-8s-8,3.582-8,8c0,13.255-10.745,24-24,24c-4.418,0-8,3.582-8,8
			s3.582,8,8,8c13.255,0,24,10.745,24,24c0,4.418,3.582,8,8,8s8-3.582,8-8c0-13.255,10.745-24,24-24c4.418,0,8-3.582,8-8
			S104.418,296,100,296z M68,312c-2.28-3.027-4.973-5.72-8-8c3.027-2.28,5.72-4.973,8-8c2.28,3.027,4.973,5.72,8,8
			C72.973,306.28,70.28,308.973,68,312z"/>
	</g>
</g>
<g>
	<g>
		<path d="M172,240c-13.255,0-24-10.745-24-24c0-4.418-3.582-8-8-8s-8,3.582-8,8c0,13.255-10.745,24-24,24c-4.418,0-8,3.582-8,8
			s3.582,8,8,8c13.255,0,24,10.745,24,24c0,4.418,3.582,8,8,8s8-3.582,8-8c0-13.255,10.745-24,24-24c4.418,0,8-3.582,8-8
			S176.418,240,172,240z M140,256c-2.28-3.027-4.973-5.72-8-8c3.027-2.28,5.72-4.973,8-8c2.28,3.027,4.973,5.72,8,8
			C144.973,250.28,142.28,252.973,140,256z"/>
	</g>
</g>
<g>
	<g>
		<path d="M412,336h-96v-56c0-4.418-3.582-8-8-8h-16V8c0-4.418-3.582-8-8-8h-32c-4.418,0-8,3.582-8,8v264h-16c-4.418,0-8,3.582-8,8
			v56h-96c-22.08,0.026-39.974,17.92-40,40v32c0,4.418,3.582,8,8,8h8v56c0,4.418,3.582,8,8,8h320c4.418,0,8-3.582,8-8v-56h8
			c4.418,0,8-3.582,8-8v-32C451.974,353.92,434.08,336.026,412,336z M260,16h16v256h-16V16z M236,288h64v48h-64V288z M420,464h-16
			v-24c0-4.418-3.582-8-8-8s-8,3.582-8,8v24h-16v-24c0-4.418-3.582-8-8-8s-8,3.582-8,8v24h-16v-24c0-4.418-3.582-8-8-8s-8,3.582-8,8
			v24h-16v-24c0-4.418-3.582-8-8-8s-8,3.582-8,8v24h-16v-24c0-4.418-3.582-8-8-8s-8,3.582-8,8v24h-16v-24c0-4.418-3.582-8-8-8
			s-8,3.582-8,8v24h-16v-24c0-4.418-3.582-8-8-8s-8,3.582-8,8v24h-16v-24c0-4.418-3.582-8-8-8s-8,3.582-8,8v24h-16v-24
			c0-4.418-3.582-8-8-8s-8,3.582-8,8v24h-16v-48h304V464z M436,400H100v-24c0-13.255,10.745-24,24-24h288c13.255,0,24,10.745,24,24
			V400z"/>
	</g>
</g>
<g>
</g>
<g>
</g>
<g>
</g>
<g>
</g>
<g>
</g>
<g>
</g>
<g>
</g>
<g>
</g>
<g>
</g>
<g>
</g>
<g>
</g>
<g>
</g>
<g>
</g>
<g>
</g>
<g>
</g>
</svg>
